# xmcd
#
# Track frame offsets:
#	150
#	16196
#	33484
#	115203
#	175258
#	196792
#	221847
#
# Disc length: 3632 seconds
# Revision: 0
# Processed by: cddbd v1.5.2PL0 Copyright (c) Steve Scherf et al.
# Submitted via: dBpowerAMP V12.0
#
DISCID=590e2e07
DTITLE=Hale Dwoskin - The Inner Circle Retreat 02 CD 17
DYEAR=2007
DGENRE=Speech
TTITLE0=Grief Dissolving into Laughter
TTITLE1=Focus on What Is Here Now
TTITLE2=Anxiety - How We Separate Ourselves - Enlightenment
TTITLE3=Exploration of Mind Body and Knowingness
TTITLE4=Body Sensations - The Story Does Not Help
TTITLE5=How to Take It Home
TTITLE6=Waves of Sensations - The Fifth Way
EXTD=
EXTT0=
EXTT1=
EXTT2=
EXTT3=
EXTT4=
EXTT5=
EXTT6=
PLAYORDER=
